<svg xmlns="http://www.w3.org/2000/svg" xmlns:xlink="http://www.w3.org/1999/xlink" viewBox="200.9 394.03 678.21 291.94">
  <!-- Designed by Behdad: t.me/behdadbahariartworks -->
  <path d="M820.86,593.88c-31.15,4.34-171.76,53.78-204.45,27.54-15.82-12.7-28.03-57.4-40.61-91,72.68-.77,184.1-58.42,242.61-87.56,.02,.13-.57-1.75,12.97,35.1,4.14-5.53,4.86-14.71,6.41-21.62,1.99-8.9,3.34-17.79,4.48-26.89,.3-2.39-2.72-7.41-3.54-9.63-10.09-27.47-9.22-25.4-9.62-25.69l-.05-.1c-64.47,32.1-192.62,98.54-262.99,86.07-2.61,7.52-4.77,15.17-6.5,22.85-4.74,12.69-7.78,33.01-9.31,44.97,12.05,21.91,21.61,48.55,27.73,72.49-27.06,21.21-83.35,22.42-100.73,1.37-32.53-39.38-15.67-113.36-42.35-168.36-5.33,9.32-9.48,37.97-10.86,48.6,24.4,50.3,11.91,115.44,35.44,157.96,7.43,13.44,15.11,21.71,38.73,24.8,29.12,3.81,71.96-4.6,82.43-33.6,1.89-5.22,3.36-10.62,4.65-16.06,14.45,36.01,19.3,52.15,99.18,37.69,50.9-9.21,106.95-27.52,125.78-30.14,18.77-2.62,40.37-.13,58.16,6.25,5.61-15.63,9.03-32.52,10.69-48.78-17.82-6.39-39.45-8.88-58.25-6.26Z"/>
  <path d="M393.78,511.42c-9.39,1.29-18.71,8.15-24.79,15.12-8.56,9.81-9.18,25.96-10.96,37.98-.71,4.75-3.15,19.97-1.42,23.51,3.52,7.18,18.84,4.24,27.08,2.69,7.76-1.46,15.75-2.89,23.32-5.29-11.12,16.57-25.8,31.07-43.4,39.96-9.51,4.8-19.71,6.99-30.13,8.78-52.57,9.02-96.68-6.16-124.48-53.43-4.8,9.9-7.32,38.26-8.1,49.14,18.15,30.87,47.18,51.58,83.12,55.38,24.44,2.59,60.76-1.62,83.66-17.72,19.36-13.61,35.36-33.81,43.72-56.02,3.99-10.6,6.06-21.87,7.97-33,2.51-14.67,6.98-32.49,2.87-47.23-3.23-11.6-15.98-21.57-28.44-19.86Z"/>
  <path d="M795.9,561.67c2.98-9.71,6.36-23.4,6.33-32.84-12.27,4.79-24.87,9.63-37.72,13.66,1.45-4.13,2.27-8.5,3.15-12.61,2.42-11.32,5.07-23.12,2.77-34.5h-.06c-.03-.08-.07-.15-.11-.22-.04,.06-.08,.12-.12,.17h-.04c-.02,.05-.05,.11-.07,.16-2.96,4.3-6.82,16.11-19.69,28.66-11.22,10.94-33.15,19.87-35.72,28.14-2.69,8.62-6.53,25.38-6.33,32.48h.15c0,.07,0,.13,0,.2,30.32-1.35,59.72-12.47,87.49-23.3Z"/>
  <path d="M334.13,502.67c-11.26-8.54-22.42-15.97-35.5-22.84-7.74,12.45-13.2,27.6-16.65,41.15,13.07,6.87,24.22,14.29,35.46,22.82,7.59-11.53,13.32-28.37,16.68-41.13Z"/>
</svg>