<svg xmlns="http://www.w3.org/2000/svg" xmlns:xlink="http://www.w3.org/1999/xlink" viewBox="0 0 2434.9 1148.6">
  <!-- Designed by Minator: t.me/mr_minator -->
  <path d="m2422.6 668.95c-1.48 26.21-3.43 52.38-6.63 78.43-6.52 53.12-14.45 106.06-32.22 156.79-13.35 38.1-34.83 71.12-68.44 94.6-39.15 27.35-83.05 40.28-130.7 36.97-36.19-2.51-66.4-17.72-86.7-49.3-0.88-1.36-1.48-3.03-3.55-3.43-3.28 1.59-5.19 4.81-7.62 7.43-20.06 21.69-42.56 40.13-69.92 51.86-42.19 18.1-84.67 16.64-127.13 0.95-22.9-8.46-43.88-20.48-63.23-35.38-5.44-4.19-5.5-4.08-9.54 1.64-36.7 51.95-86.22 84.04-149.04 94.17-36.88 5.94-72.76-0.34-107.19-14.36-34.32-13.97-62.62-35.9-84.96-66.62-8.72 11.67-18.76 21.75-29.2 31.4-37.79 34.93-81.64 58.49-132.77 65.68-51.75 7.28-102.58 1.95-151.89-16.51-31.42-11.76-60.43-27.37-85.98-49.24-6.04-5.17-6.16-5.16-1.29-11.65 30.5-40.69 49.88-86.18 57.01-136.48 9.02-63.69-0.49-124.67-30.71-181.72-39.65-74.83-100.61-123.93-181.64-148.18-0.64-0.19-1.29-0.32-1.93-0.51-9.6-2.8-9.56-2.79-5.44-11.57 19.47-41.44 21.39-83.85 2.41-125.41-25.23-55.25-69.21-85.09-130.18-88.73-10.92-0.65-21.94-0.45-32.73 2.01-4.08 0.93-5.73-0.19-6.36-4.75-2.16-15.59-1.49-31.22-0.8-46.79 2.22-49.87 9.67-99.1 19.19-148.03 5.01-25.77 12.09-51.04 19.54-76.21 1.43-4.82 3.21-6.28 8.31-5.47 23.9 3.81 47.94 6.8 71.8 10.85 54.29 9.2 108.3 19.84 161.63 33.63 68.8 17.79 136.41 39.43 203.2 63.67 1.25 0.45 2.44 1.14 3.72 1.42 5.09 1.11 5.19 3.91 3.31 8.08-4.92 10.9-9.89 21.79-14.29 32.9-20.42 51.63-38.72 103.93-49.3 158.65-5.49 28.38-9.93 56.89-13.27 85.59-2.96 25.39-6.94 50.65-8.94 76.16-0.57 7.31-0.51 14.61-0.81 21.9-0.79 19.26-1.16 38.55-1.34 57.8-0.61 66.88 6.97 132.55 31.04 195.63 11.55 30.28 29.28 55.66 54.97 75.51 46.92 36.23 102.11 15.95 125.57-24.15 12.56-21.48 18.13-44.62 15.94-69.72-4.48-51.32-23.94-97.09-51.39-139.79-21.44-33.34-45.36-64.78-75.55-90.95-6.88-5.96-7.09-6.39-3.53-13.18 29.04-55.22 42.4-115.01 51.28-176.08 0.77-5.28 2.6-8.21 7.41-10.43 53.55-24.72 100.35-59.45 145.27-97.23 65.08-54.72 118.68-119.77 170.34-186.65 20.12-26.05 38.1-53.6 56.28-81 0.88-1.26 1.5-2.88 3.37-3.15 2.04 1.08 2.19 3.18 2.84 5.04 37.72 108.2 89.94 209.19 151.71 305.43 17.61 27.43 36.05 54.25 57.58 78.79 3.82 4.35 4.99 8.17 1.53 13.2-3.19 4.65-5.71 9.75-8.84 14.44-25.5 38.1-56.62 71.11-91 101.29-25.84 22.69-53.1 43.1-84.39 57.76-30.27 14.19-62.18 23.03-94.82 29.55-15.94 3.18-31.8 6.76-48.04 8.3-6.61 0.62-7.15 1.76-3.71 7.21 6.37 10.11 13.22 19.94 19.3 30.23 23.64 39.99 38.75 83 43.82 129.25 2.52 23.03-1.11 45.76-6.07 68.22-5.04 22.79-12.65 44.71-22.93 65.7-1.14 2.33-2.93 4.5-2.71 7.36 34.12 7.89 89.83-4.53 104.03-61.47 5.31-21.28 2.92-42.14-0.62-63.21-3.32-19.75-10.04-38.52-15.68-57.61-1.95-6.59-1.9-6.75 4.85-8.51 55.21-14.41 110.43-28.77 165.65-43.13 0.62-0.16 1.31-0.02 2.17-0.02 2.39 3.02 0.81 6.25 0.29 9.36-5.75 34.46-8.79 69.13-8.91 104.08-0.06 17.89 3.81 34.93 9.83 51.58 2.62 7.24 6.29 13.89 12.23 19.1 10.48 9.19 22.45 8.44 31.41-2.29 6.41-7.68 8.62-17.09 10.2-26.66 2.41-14.52 2.31-29.17 1.45-43.77-1.39-23.54-2.01-47.15-5.3-70.54-1.98-14.14-3.87-28.31-6.62-42.31-2.27-11.57-1.81-10.06 7.82-12.6 33.66-8.9 67.43-17.41 101.14-26.12 17.02-4.39 33.99-8.94 51.02-13.3 7.36-1.88 7.98-1.34 6.5 6.44-5.84 30.7-10.02 61.65-11.63 92.82-1.11 21.51-2.91 43.18 1.06 64.65 0.96 5.2 2.44 10.34 4.07 15.38 9.01 27.96 36.72 26.11 51.23 13.74 10.84-9.24 18.59-20.78 22.58-34.57 5.66-19.52 4.85-39.45 3.01-59.36-3.28-35.46-12.11-69.98-17.98-105-1.48-8.86-1.66-8.87 7.37-11.22 97.54-25.41 195.09-50.81 292.64-76.21 1.6-0.42 3.19-0.91 4.82-1.21 2.83-0.51 4.45 0.65 4.6 3.63 0.18 3.65 0.45 7.3 0.57 10.95 1.3 38.26-1.29 76.4-3.45 114.56z"/>
  <path d="m1078.7 821.85c-20.72-112.25-117.64-200.19-241.08-201.68-49.33-0.6-95.35 12.3-136.66 39.73-68.4 45.43-105.85 109.67-112.41 191.29-4.04 50.36 7.74 97.69 32.8 141.63 0.94 1.66 2.54 3.14 1.95 5.4-0.51 0.38-0.98 0.94-1.57 1.12-1.26 0.39-2.57 0.76-3.87 0.82-34.21 1.51-68.35 1.99-102.1-5.63-30.8-6.96-55.65-22.56-73.76-48.77-16-23.17-25.89-48.27-28.04-76.64-3.02-39.82 7-75.61 30.51-107.73 10.65-14.56 23.22-27.37 36.44-39.52 34.4-31.62 72.54-58.13 112.47-82.18 4.77-2.87 10.06-5.03 15.34-10.11-6.67-2.98-12.04-5.43-17.45-7.78-34.1-14.84-68.73-28.41-102.62-43.74-40.54-18.34-81.12-36.59-121.88-54.41-43.2-18.88-86.72-37.01-129.88-55.98-6.7-2.95-12.13-3.36-18.71-0.49-47.06 20.55-89.02 48.49-125.41 84.9-62.56 62.6-90.01 139.46-92.69 226.5-0.58 18.61 1 37.12 3.5 55.59 5.76 42.63 18.65 82.82 40.57 119.93 25.71 43.55 57.37 82.44 95.02 116.02 36.05 32.16 77.61 53.75 125.84 62.66 52.07 9.61 104.57 13.44 157.28 14.94 57.45 1.63 114.89 0.98 172.29-3.02 40.4-2.81 80.73-6.4 120.94-11.01 52.71-6.04 105.42-12.26 157.8-20.92 23.43-3.87 45.99-10.29 67.43-20.44 102.85-48.69 158.64-158.4 137.95-270.48zm-233.27 88.47c-25.88-0.11-44.38-18.78-44.45-44.88-0.07-27.55 21.54-49.64 48.83-49.91 26.52-0.26 45.35 18.33 45.45 44.85 0.11 27.94-21.97 50.06-49.83 49.94z"/>
  <path d="m2421.8 377.73c-6.64 20.57-15.65 40.2-26.75 58.84-14.97 25.13-30.85 49.65-48.16 73.24-1.77 2.41-3.54 4.82-5.44 7.13-5.23 6.35-6.29 6.56-13.27 2.45-9.73-5.72-19.52-11.35-29.11-17.3-50.81-31.53-102.63-61.25-156.07-88.12-7.7-3.87-15.12-8.32-22.64-12.56-0.49-0.26-0.74-1-1.8-2.53 5.71-5.66 11.37-10.8 16.48-16.44 18.84-20.79 29.07-44.89 27.97-73.41-1.34-34.71-29.27-55.69-63.05-47.22-12.22 3.06-22.72 8.85-31.7 17.77-18.26 18.13-27.85 39.85-29.67 65.58-2.14 30.31 5.35 57.38 25.48 80.24 12.78 14.52 27.82 26.62 44.54 36.5 3.12 1.84 6.15 3.83 10.01 6.24-5.52 8.58-12.14 15.93-17.08 24.42-3.84 6.59-8.65 12.62-12.45 19.23-2.7 4.7-5.9 5.32-10.63 3.71-8.51-2.87-16.93-5.89-24.75-10.37-38.02-21.79-69.74-50.64-95.8-85.79-5.16-6.96-9.59-14.4-13.14-22.29-14.77-32.84-27.11-66.49-30.3-102.68-2.32-26.34 0.16-52.39 7.12-77.99 13.49-49.65 35.77-94.5 73.43-130.29 38.79-36.86 84.9-58.16 138.57-63.38 42.24-4.11 81.88 4.1 119.91 21.77 43.09 20.02 82.39 45.6 116.19 79.39 35.76 35.76 54.65 79.78 62.01 128.8 6.34 42.19 3.28 84.24-9.9 125.06z"/>
  <path d="m868.73 486.64c0.04 48.06-38.72 86.91-86.75 86.93-48.28 0.03-86.69-38.39-86.71-86.74-0.02-48.42 38.27-86.86 86.53-86.86 48.23-0.01 86.89 38.53 86.93 86.67z"/>
</svg>