<svg xmlns="http://www.w3.org/2000/svg" xmlns:xlink="http://www.w3.org/1999/xlink" viewBox="227.21 392.43 625.58 295.12">
  <!-- Designed by Behdad Bahari: redl.ink/BEHDADBAHARI -->
  <path d="M852.79,392.44c-125.28,80.63-206,65.85-285.37,112.84-1.12,.67-4.15,1.86-4.72,3.06-2.52,5.32-6.79,17.57-8.9,26.32-1.77,4-2.83,8.93-3.66,12.05-13.14,38.02-6.49,39.16,9.02,91.26-15.41,4.38-37.26,2.45-44.57-12.09-16.76-33.33-5.16-136.37-37.71-146.67-3.53,7.36-6.06,16.81-7.64,24.86,26.4,39.51,15.92,142.12,33.21,169.06,7.16,11.15,26.35,11.99,38.79,9.47,18.33-3.71,22.85-13.6,28.07-31.86,30.83,50.83,77.5,29.04,133.23,4.33,3.01-1.33,5.95-3.29,9.3-2.53,2.08,2.51,.78,5.85,.14,8.71-1.44,6.43-5.74,20.34,1.81,24.8,12.9,7.61,38.52-16.14,49.2-17.08,12.66-1.12,18.11,18.29,31.62,15.52,14.26-2.92,19.64-19.54,23.07-31.44,4.08-14.14,8.46-18.97-35.66-56.02-3.48,6.98-6.11,17.16-7.65,24.84,10.56,11.95,22.77,19.41,33.12,33.94-17.47,9.56-21.43-20.64-37.13-17.53-10.58,2.1-19.57,10.65-29.62,14.38-4.07,1.51-10.1,3.38-14.19,.86-10.19-6.28-4.43-19.64-2.61-28.79,.77-3.87,2.45-10.53-1.7-10.93-3.48-.32-7.6,2.22-10.79,3.38-49.52,17.94-97.95,45.07-128.25-8.36-11.71-20.64-18.87-45.8-24.48-69.7,13.08-6.15,25.88-12.34,39.75-16.93,72.42-23.97,149.35-27.55,242.77-91.4,3.31-8.19,11.51-29.54,11.54-38.36Z"/>
  <path d="M473.41,597.31c-.1,0-.21-.01-.31-.02-5.89-14.15-18.86-29.76-33.76-25.43-15.39,4.47-18.14,18.75-22.04,32.46-1.55,5.46-5.29,13.58-.72,18.4,7.81,8.24,35.23,8.41,46.72,7.79,.24-.56,.47-1.12,.71-1.68,1.11,2.95,2,6,2.64,9.07-22.35,9.48-115.34,14.18-178.96,4.04-8.39-1.34-34.06-5.44-40.13-11.35-10.68-10.39-9.93-23.09-11.9-36.62-1.82,1.46-2.46,5.84-3.21,8.14-4.76,14.95-4.59,20.1-4.99,27.39-2.43,44.27,12.83,48.64,48.85,53.04,45.46,5.55,123.93,6.61,163.7-3.75,24.16-6.29,24.57-9.79,31-29.77,12.78-39.71,1.72-47.33,2.4-51.72Z"/>
  <path d="M434.76,545.06c1.57,1.24,3.62,3.37,5.54,4.05,5.51-8.01,11.36-18.93,16.48-32.63-1.37-2.07-4.26-3.83-6.1-5.47-13.47-12.01-11.38-16.16-14.4-15.69-.28,.59-.55,1.19-.83,1.79,.15-.44,.28-.88,.39-1.33l-.13-.25c-2.31,2.25-3.76,5.79-5.22,8.57-3.57,6.77-10.49,17.14-9.42,25.23,.83,6.3,9.1,12.09,13.71,15.73Z"/>
  <path d="M738.96,497.56c-2.31,2.1-3.75,5.4-5.22,8-3.57,6.32-10.51,16.02-9.43,23.56,.84,5.85,9.12,11.29,13.72,14.66,1.64,1.2,3.58,3.03,5.53,3.79,5.51-7.47,11.36-17.67,16.48-30.46-4.3-5.53-11.43-9.22-15.91-14.88-.91-1.15-2.62-5.19-4.59-4.88-.28,.56-.56,1.12-.84,1.69,.15-.41,.28-.83,.39-1.25l-.13-.24Z"/>
  <path d="M722.57,532.86c-2.31,2.1-3.76,5.4-5.22,8-3.57,6.32-10.49,15.99-9.42,23.55,.83,5.88,9.1,11.28,13.71,14.68,1.57,1.16,3.62,3.15,5.54,3.78,5.51-7.47,11.36-17.67,16.48-30.46-1.37-1.93-4.26-3.57-6.1-5.1-13.47-11.21-11.38-15.09-14.4-14.64-.28,.55-.55,1.11-.83,1.67,.15-.41,.28-.82,.39-1.24l-.13-.24Z"/>
  <path d="M756.14,578.26c2.61,1.74,5.93,4.36,9.09,5.08,5.75-7.97,10.94-17.38,15.03-27.81-7.18-7.67-17.32-12.24-19.77-23.26-.74-3.32,.54-5.74,.65-8.89-1.17,.22-3.87,5.16-5.32,7.64-10.93,19.15-21.24,32.87,.32,47.24Z"/>
</svg>