<svg xmlns="http://www.w3.org/2000/svg" xmlns:xlink="http://www.w3.org/1999/xlink" viewBox="254.76 446.61 570.47 186.78">
  <!-- Designed by Behdad Bahari: redl.ink/BEHDADBAHARI -->
  <path d="M808.47,551.43c-3.89,8.48-6.63,18.06-8.37,27.3,8.11,4.55,14.45,13.58,16.7,23.13-3.42,2.47-10.93,5.1-14.97,4.1-9.44-2.34-5.22-22.46-18.6-23.8-17.82-1.74-35.44,7.93-53.19,9.08-11.87,.77-22.14-3.42-25.14-15.83-2.11-8.73,.92-16.97,.02-25.49-2.19,.97-6.57,19.54-15.44,28.06-21.69,20.84-44.2,16.82-123.07,16.28,1.26-3.89,2.34-7.76,3.4-11.32,12.26-41.34,.59-39.31-18.88-42.53-8.84-1.46-43.37-6.61-50.67-11.06,11.17-6.55,18.58-5.57,113.31-26.77,3.35-8.03,7.24-19.03,8.29-27.31-104.65,23.41-108.29,20.14-119.06,31.66-8.59,9.19-11.77,20.09-14.87,32.17-4.18,16.27,1.04,17.91,17.24,21.78,45.5,10.86,61.39,3.7,61.17,23.73-6.55,10.3-12.26,9.37-19.15,9.37-26.29,0-35.85,.78-46.36-4.03-29.66-13.58-30.71-45.85-46.41-124.08-2.66,2.18-3.5,8.28-4.6,11.77-6.09,19.52-3.46,17.42-2.14,23.99,14.96,74.59,16.03,92.39,33.43,108.15,14.12,12.78,30.92,11.52,48.74,11.52,4.29,0,9.01,.55,13.45,.14,0,.03-.01,.06-.02,.08,90.57,.02,113.7,5.75,137.46-15.76,8.21-7.43,11.33-18.52,15.82-28.3-2.23,5.56-1.66,20.28,.35,26.87,3.51,11.47,13.72,14.94,24.81,14.22,17.54-1.14,36.13-11.73,53.75-9.02,15.04,2.32,5.26,31.37,28.58,22.01,10.17-4.08,13.31-13.73,16.38-23.28,6.39-19.86,9.69-44.66-11.97-56.82Z"/>
  <path d="M431.04,523.63c-7.55-15.18-25.55-17.38-36.9-4.24-5.97,6.91-8.22,17.74-10.59,26.23-2.96,10.58-4.63,21.76,6.87,27.55,11.61,5.84,25.16,1.18,37.25,5.14-10.48,4.9-23.65,5.82-34.37,7.49-32.12,5-116.86,24.4-128.79-30.34-.68-3.11,.08-10.06-1.51-12.48-2.02,3.15-2.95,7.18-4.09,10.75-3.32,10.5-7.02,19.68-.76,35.97,15.66,40.75,78.34,32.42,121.37,24.33,11.4-2.14,23.02-3.13,34.16-6.56,17.24-5.31,16.27-10.43,18.75-18.04,5.26-16.13,7.99-26.97,3.88-49.02-1.07-5.76-2.64-11.52-5.25-16.78Zm-38.79,17.75c9.77-5.72,22.05-4.7,29.36,7.5-9.96-.3-23.55-.47-29.36-7.5Z"/>
  <path d="M758.78,520.42c-3.31,23.43,14.85,17.54,23.14,27.06,4.63-8.92,8.33-23.53,10.4-33.72-7.57-8.69-25.71-4.67-23.22-24.3,.21-1.68,1.25-4,.82-5.65l-.11-.02c-1.48,1.43-2.07,4.44-2.75,6.33-3.34,9.88-6.82,19.96-8.28,30.31Z"/>
  <path d="M746.61,551.19c4.63-8.92,8.33-23.53,10.4-33.72-7.57-8.69-25.71-4.67-23.22-24.3,.09-.71,.33-1.54,.54-2.39,1.39,14.65,16.18,11.2,23.43,19.52,4.63-8.92,8.33-23.53,10.4-33.72-7.57-8.69-25.71-4.67-23.22-24.3,.21-1.68,1.25-4,.82-5.65l-.11-.02c-1.48,1.43-2.07,4.44-2.75,6.33-3.34,9.88-6.82,19.96-8.28,30.31-.24,1.67-.35,3.17-.38,4.56-1.28,1.52-1.85,4.25-2.49,6.02-3.34,9.88-6.82,19.96-8.28,30.31-3.31,23.43,14.85,17.54,23.14,27.06Z"/>
  <path d="M387.93,506.18c-.18,1.44-1.07,3.42-.7,4.83l.09,.02c1.26-1.22,1.77-3.79,2.35-5.41,2.85-8.44,5.83-17.06,7.08-25.9,2.83-20.02-12.69-14.99-19.77-23.12-3.96,7.62-7.12,20.11-8.88,28.82,6.47,7.43,21.97,3.99,19.84,20.77Z"/>
</svg>