<svg xmlns="http://www.w3.org/2000/svg" xmlns:xlink="http://www.w3.org/1999/xlink" viewBox="195.21 398.71 689.58 282.61">
  <!-- Designed by Behdad Bahari: redl.ink/BEHDADBAHARI -->
  <path d="M763.47,568.83c16.41,2.35,13.13,25.67,45.86,22.76,4.45-9.29,9.13-21.08,10.74-31.06-32.57,2.9-29.43-20.42-45.82-22.76-18.46-2.64-11.26,41.95-52.57,9.18-4.99,8.93-8.65,21.26-10.85,31.02,41.43,32.87,34.6-11.73,52.64-9.15Z"/>
  <path d="M759.45,519.59c-10.74-4.08-19.72-10.71-29.15-16.65-5.06,9.39-8.61,20.92-10.84,31.03,9.44,5.95,18.42,12.58,29.18,16.66,5.09-9.91,8.63-20.61,10.81-31.05Z"/>
  <path d="M389.88,451.5c-16.81-9.77-31.25-21.12-43.74-33.76-8.04,10.58-14.73,30.14-18.12,41.93,12.51,12.65,26.97,24.02,43.8,33.81,8.35-12.37,14.34-28.44,18.06-41.98Z"/>
  <path d="M611.32,619.73c-14.83-14.78-25.18-59.94-36.13-94.05,74.3,2.8,191-50.69,252.22-77.61,.01,.13-.5-1.82,11.53,36.5,4.5-5.45,5.68-14.8,7.61-21.78,2.47-9,4.28-18.01,5.89-27.25,.42-2.43-2.42-7.71-3.14-10.01-8.97-28.56-8.18-26.41-8.58-26.72l-.04-.1c-67.44,29.65-201.63,91.28-272.92,75.1-3.03,7.55-5.61,15.26-7.76,23.03-5.47,12.74-9.57,33.35-11.71,45.5,11.24,22.98,19.71,50.66,24.8,75.42-28.68,20.35-86.26,18.83-102.99-3.52-31.06-41.49-10.82-116.24-34.69-173.24,.03-.5-.01-.96-.2-1.3-2.27,.25-3.33,1.9-16.73,13.28-.55,.47-2.19,1.41-2.45,2.09-3.34,8.7-6.17,17.4-8.54,26.35-1.9,7.22-5.2,15.53-4.43,22.85,5.95-5.07,11.89-10.98,18.55-15.12,0,.04-.01,.07-.02,.11,22.47,52.59,6.53,118.53,28.49,163.13,6.94,14.09,14.38,22.92,38.36,27.24,29.57,5.32,73.75-1.19,85.86-30.31,2.18-5.25,3.96-10.69,5.54-16.18,4.22,12.13,8.82,26.61,18.11,35.87,29.93,29.84,232.43-17.9,273.66-27.16,5.48-14.46,11.69-34.07,13.18-49.33-40.33,9.05-243.62,56.97-273.47,27.21Z"/>
  <path d="M384.87,514.27c-5.14,.52-9.83,3.27-14.13,5.94-16.96,10.49-18.13,20.44-23.36,39.7-2.51,9.23-5.97,19.48-6.23,29.14-.36,13.91,16.73,10.33,25.08,9.1,14.7-2.17,25.47-4.56,31.55-17.17,4.31,7.39,7.56,16.2,8.89,26.21-17.6,15.57-53.95,18.89-79.57,21.36-46.21,4.45-96.9,11.58-118.56-29.17-5.96,10.38-11.27,37.37-13.33,49.2,19.65,36.96,61.93,34.39,102.95,30.79,23.17-2.03,47.08-3.49,69.53-9.99,28.93-8.37,35.38-20.79,42.08-42.59,8.4-27.36,14.46-51.57,9.16-75.12-3.41-15.17-15.1-39.32-34.07-37.4Z"/>
</svg>