<svg xmlns="http://www.w3.org/2000/svg" xmlns:xlink="http://www.w3.org/1999/xlink" viewBox="268.81 408.42 542.38 263.2">
  <!-- Designed by Behdad Bahari: redl.ink/BEHDADBAHARI -->
  <path d="M430.7,520c-24.59-3.19-34.96,27.67-40.08,45.65-2.18,7.64-5.16,16.07-2.16,23.88,9.05,23.52,44.59,23.74,54.01-3.88,2.64,10.41,3.56,21.53,4.13,31.88-37.49-17.78-73.25,6.55-111.92,.14-22.03-3.65-45.7-14.89-52.67-37.86-3.3-10.88-1.12-21.07-.85-32.09-1.45,.57-4.51,10.71-4.96,12.08-9.64,30.01-13.35,59.4,11.06,78.56,19.52,15.31,47.03,18.48,70.87,14.66,26.32-4.21,46.29-15.08,78,.22,11.2-4.92,13.66-15.37,17.01-26.12,7.64-24.57,6.25-51.03,.22-76.05-2.81-11.63-8.56-29.25-22.67-31.08Zm-27.95,40.49c12.33-7.55,25.67-5.91,33.67,9.05-11.2,4.95-26.33,.18-33.67-9.05Z"/>
  <path d="M810.43,609.25c-4.57-17.06-17.36-30.28-24.5-46.11-4.58,7.06-9.24,27.18-10.99,35.4,5.48,12.16,14.06,22.81,19.98,34.79-37.42,11.8-113.15-17.54-167.05-12.76-16.59,1.47-33.53,9.19-50.46,12.77,1.61-3.95,2.99-8.07,4.32-12.27,4.73-14.92,10.46-33.64,6.16-49.12-6.29-22.63-32.24-25.2-51.06-17.49-21.2,8.68-27.73,26.9-33.66,47.27-1.31,4.51-2.72,9.14-3.58,13.83-4.7-3.59-8.72-7.77-11.74-12.43-17.64-27.23-4.08-45.46-8.55-116.39l-.32-.12c-2.44,4.51-3.86,9.62-5.41,14.51-8.32,26.44-4.95,25.08-4.55,35.69,1.9,50.61-7.25,67.4,2.25,90.66,9.49,23.24,33.38,37.76,57.6,37.8,31.26,15.26,58.22-11.8,106.14-9.22,57.38,3.09,135.35,27.96,158.97,7.67,7.66-6.57,10.17-19.59,12.89-28.72,2.44-8.22,5.86-17.15,3.56-25.73Zm-271.46,20.36c-12.1-6.37-23.48-17.93-27.58-30.62,24.49-21.74,64.31-18.2,66.84,16.16-9.63,10.88-24.27,15.18-39.26,14.46Z"/>
  <path d="M504.1,565.81c41-62.88,138.54-48.34,208.26-85.55,22.86-12.2,45.38-32.47,47.36-36.5,4.23-8.62,9.64-27.65,10.78-34.8l-.27-.54c-76.74,82.36-187.42,50.11-243.75,107.29-24.23,24.6-34.09,69.69-34.04,72.71l.17,.19c4.94-6.52,6.91-15.78,11.48-22.8Z"/>
  <path d="M730.52,592.07c6.78-16.08,6.45-18.39,6.76-18.3,2.66-8.77,3.46-12.85,4.31-18.04-21.41-2.38-30.98-12.78-36.25-28.93-3.37,4.34-4.58,10.85-6.24,16.17-1.25,4.03-2.41,8.07-3.39,12.17-9.31-1.25-19.76-3.11-27.59-7.03-5.17,11.3-8.82,24-11.13,36.33,17.39,8.7,52.84,9.74,73.53,7.63Z"/>
  <path d="M360.17,542.03c-9.77-5.44-19.29-12.19-30.26-15.01-5.28,12.01-9.01,24.37-11.1,36.34,10.95,2.82,20.46,9.56,30.22,15,5.18-11.24,8.82-24.07,11.14-36.33Z"/>
</svg>