<svg xmlns="http://www.w3.org/2000/svg" xmlns:xlink="http://www.w3.org/1999/xlink" viewBox="184.81 332.29 710.41 415.44">
  <!-- Designed by Behdad: t.me/behdadbahariartworks -->
  <path d="M533.45,703.88c-19.65,3.19-40.66,.73-59.48-6.77,25.13-12.42,37.55-39.21,45.56-66.96,3.73-12.93,8.15-27.01,2.66-40.09-14.25-33.95-59.09-24.11-82.16-5.76-8.13,6.46-13.47,15.67-17.56,25.39,.65-2.1,1.35-4.4,2.12-7,31.45-64.19,134.67-70.14,322.86-213.61,17.26-13.16,16.52-4.51,26.23-36.8,1.89-6.3,5-13.51,4.59-19.99-240.32,188.61-318.79,143.62-355.85,266.93-1.12,3.73-3.19,8.83-4.84,14.03-4.09-49.12,2.72-203.99,1.17-208.45-3.43,4.48-4.72,11.35-6.45,16.76-8.83,27.88-7.21,56.65-7.8,85.64-.68,33.39-4.42,135.65,1.48,164.83-.19,31.9,26.22,56.76,55.61,68.22,70.57,27.53,127.45-27.56,185.78-58.3,72.89-38.42,153.53-58.34,234.78-69.36,5.36-12.76,11.16-29.29,13.07-42.99-241.16,32.69-290.56,122.74-361.75,134.28Zm-112.39-70.04c24.37-28.38,78.23-34.61,89.19,2.37-11.88,13.57-29.46,22.65-47,24.63-25.4,2.86-36.92-6.99-42.19-26.99Z"/>
  <path d="M361.46,561.95c-30.31-8.16-40.42,27.62-46.58,48.98-2.51,8.69-8.18,22.06-2.84,30.57,8.51,13.58,26.68,16.26,40.67,24.1-28.25,19-67.9,25.77-98.11,21.11-37.43-5.77-62.1-33.69-54.76-72.1,1.45-4.94,2.73-9.93,3.14-15.04-11.03,26.92-24.45,62.41-14.93,91.27,17.61,53.4,103,47.69,149.44,18.17,24.26-15.42,34.97-37.15,43.09-63.86,3.4-11.17,7.18-22.86,7.6-34.6,.65-18.02-7.07-43.32-26.71-48.61Zm-28.97,43.57c14.26-4.23,27.88,1.23,36.49,18.69-11.19-7.83-25.97-11.55-36.49-18.69Z"/>
  <path d="M345.83,479.63c-8.33-4.52-16.87-8.63-25.45-12.64-6.1,13.43-10.44,28.3-13.16,42.98,8.58,4.01,17.12,8.11,25.44,12.63,6.15-13.36,10.45-28.52,13.17-42.97Z"/>
  <path d="M731.03,517.27c-14.03,18.97-33.87,33.37-46.85,52.98-6.14,9.27-9.22,19.37-12.52,30.18-2.09,6.84-5.27,13.67-5.16,20.82l.2,.27c25.71-12.44,52.49-22.4,79.56-31.44,4.84-11.71,11.68-30.44,13.02-42.98-14.39,4.81-28.71,9.87-42.83,15.44,5.15-8.98,8.14-18.96,11.07-29.01,1.4-4.85,4.36-11.34,3.51-16.25Z"/>
</svg>