<svg xmlns="http://www.w3.org/2000/svg" xmlns:xlink="http://www.w3.org/1999/xlink" viewBox="251.38 422.1 577.25 235.82">
  <!-- Designed by Behdad: t.me/behdadbahariartworks -->
  <path d="M821.18,543.68c-7.1-.18-4.48,15.16-4.39,18.27,2.01,66.72-38,61.52-44.42,42.76-1.2-3.5-1.95-17.92-9-15.69-4.22,1.34-7.85,8.95-10.57,12.07-8.12,9.3-32.02,33.82-40.94,25.42-1.82-9.11,3.27-25.56-5.01-33.47-8.58-8.21-65.04,47.91-116.6,39.76-4.4-.7-9.84-3.83-14.3-4.89,1.15-1.41,2.22-2.88,3.17-4.39,8.57-13.71,9.55-34.23-5.12-44.44-13.54-9.43-30.7-7.28-47.33-6.82,46.22-10.89,82.96-23.89,108.81-35.47,14.89-6.67,44.21-13.42,38.91-34.07-4.46-15.89-15.17-4.54-26.14,1.03-75.17,38.19-156.45,45.86-159.47,60.44-9.63,46.55,59.69,26.26,81.03,36.06-14.03,32.14-76.51,35.3-98.43,11.6-22.48-24.31,6.6-74.09-8.36-93.12-7.24-7.6-8.16,8.55-8.75,12.23-2.64,16.5-5.38,33.09-5.02,49.85,1.66,77.79,82.17,83.31,118.32,55.23-.01,.29-.03,.56-.03,.86,.32,18.81,22.2,21.15,37.41,21.01,34.24-.32,64.4-20.4,93.49-37.08,4.03,47.02,34.89,35.96,65.54-2.01,15.19,35.43,65.31,32.67,64.55-46.33-.06-6.39,1.67-25.6-7.34-28.8Z"/>
  <path d="M416.11,546.11c-37.81-5.39-45.8,59.02-2.81,67.5-28.59,23.66-115.78,28.33-142.32-12.88-6.82-10.59-.53-27.91-11-35.93-8.59-4.94-8.57,11.38-8.6,15.25-.82,93.86,155,92.35,180.27,43.03,13-25.36,5.75-73.94-15.54-76.98Zm9.06,43.34c-8.51-1.88-20.22,.04-27.54-7.06,11.18-15.57,30.56-19.3,27.54,7.06Z"/>
  <path d="M734.54,501.26c6.04-.71,4.63-16.24,5.54-20.17,2.83-12.14,10.79-23.14,21.68-29.31,16.6-9.41,53.69,2.94,35.33,24.44-20.46,23.96-40.17,3.51-39.33,24.24,1.43,21,25.71,15.04,38.22,6.23,27.81-19.58,22.8-64.02-5.94-80.15-28.13-15.78-56.05,13.57-62.2,39.43-1.48,6.25-4.65,32.61,6.69,35.28Z"/>
  <path d="M398.64,513.63c3.78-3.39,4.79-8.76,4.6-13.62-.93-23.22-22-27.61-31.15-18.21-2.64,.03-4.83,4.1-5.1,9.54-.7,13.8,17.48,35.03,31.66,22.3Z"/>
</svg>