<svg xmlns="http://www.w3.org/2000/svg" xmlns:xlink="http://www.w3.org/1999/xlink" viewBox="232.87 405.11 614.24 269.77">
  <!-- Designed by Behdad: t.me/behdadbahariartworks -->
  <path d="M356.74,531.86c-13.68-2.53-25.11-6.87-34.99-16.9-6.34,12.63-11.14,31.3-13.95,45.3,9.91,10.06,21.38,14.42,35.1,16.96,6.2-14.23,11.19-29.75,13.85-45.36Z"/>
  <path d="M580.73,571.72c-3.24-26.27-46.3-33.88-64.92-51.68,33.03-21.23,116.54-23.75,239.06-69.59,4.99-12.11,12.46-32.39,13.73-45.34-198.77,74.36-242.52,29.71-269.17,119.84-6.7,22.67-10.82,31.71,9.6,46.13,16.84,11.89,41.77,20.94,52.33,34.11-8.44,6.01-19.53,10.73-30.94,12.42-24.05,3.56-40.73-9.88-51.41-30.64-15.27-29.67-14.59-64.93-31.23-94.06-6.09,10.59-11.51,33.32-13.99,45.24,20.93,36.64,14.34,90.42,50.38,118.2,11.72,9.03,27.91,8.54,41.5,4.64,30.33-8.71,40.77-30.67,49.05-58.49,2.81-9.44,7.25-20.8,6.01-30.79Z"/>
  <path d="M847.08,563.69c-71.47,56.46-171.99,82.1-255.11,35.25-5.31,11.5-10.38,26.76-13.9,45.34,75.94,42.8,169.14,26.2,241.82-25.13,12.55-8.86,12.8-2.62,22.35-34.39,2.04-6.83,5.3-14.34,4.83-21.07Z"/>
  <path d="M396.32,530.96c-5.73-1.33-11.85,2.93-15.89,6.48-10.75,9.45-14.35,24.64-18.31,37.8-2.6,8.64-10.73,26.07-2.08,33.42,13.29,11.3,35.01-5.54,50.71,.36-51.54,20.52-152.66,38.84-163.59-15.45-4.37,3.27-5.83,13.83-7.59,19.45-2.62,8.39-4.96,16.81-6.49,25.51-2.46,14.01,17.81,27.1,28.26,30.83,52.06,18.59,146.65-14.71,155.05-26.86,6.85-9.92,9.63-24.78,12.76-36.1,5.32-19.25,7.4-33.89-7.15-54.54-5.64-8.01-16.58-18.79-25.67-20.9Z"/>
  <path d="M795.7,518.89c-50.3,27.06-54.82,39.59-62.63,64.99-1.68,5.46-7.13,17.11-5.19,22.64,35.42-3.04,61.52-17.27,91.22-36.52,3.18-7.86,10.81-27.76,10.91-36.24-17.43,11.29-44.45,29.78-65.46,32.78,6.79-4.17,13.74-7.91,20.21-11.39,3.52-8.63,10.43-26.9,10.94-36.26Z"/>
</svg>