<svg xmlns="http://www.w3.org/2000/svg" xmlns:xlink="http://www.w3.org/1999/xlink" viewBox="270.93 387.64 538.13 304.73">
  <!-- Designed by Behdad: t.me/behdadbahariartworks -->
  <path d="M731.05,566.3c-4.5,7.64-8.25,18.67-10.63,27.3,11.82,15.03,29.1,30.64,36.99,48.65-24.78,8.41-28.16-11.8-43.48-7.13-12.47,3.8-22.6,16.58-33.67,23.22-22.5,13.49-18.27-10.52-9.98-35.38,1-3.01,3.27-6.42,2.61-9.55-7.97,3.11-96.73,45.33-143.73,38.6,17.68-11.99,22.15-25.07,29.7-45.38,4.54-12.21,11.99-29.18-.61-39.35-10.45-8.43-25.27,1.33-33.63,8.17-14.34,11.73-23.5,26.58-30.66,43-3.17-3.24-5.39-8.26-6.74-12.61-12.53-40.27,4.88-83.52,2.28-124.33l-.57-.19c-6.89,9.95-15.21,34.85-18.65,48.2-.72,2.8,.22,7.1,.11,10.05-1.55,39.05-17.66,120.12,13.53,126.75,13.62,49.07,129.44,2.61,175.37-19.64-29.77,90.02,30.35,19.74,44.65,16.83,15.65-3.18,19.04,15.41,44.57,5.92,9.45-3.51,12.77-11.67,16.31-20.47,7.36-18.31,10.5-25.35-2.22-45.46-8.55-13.52-19.86-26.29-31.57-37.19Zm-229.54,56.5c11.83-12.24,31.09-24.74,43.25-11.99-11.89,8.22-30.63,15.54-43.25,11.99Z"/>
  <path d="M808.94,387.64c-7.01,5.38-12.42,13.68-19.33,19.49-76.2,64.15-203.6,32.84-265.43,116.9-15.44,20.99-25.69,51.26-25.53,54.69l.23,.12c2.28-2.11,3.53-6.25,5.03-8.83,54.07-92.43,199.15-54.99,276.07-128.19,11.55-10.99,14.57-12.2,24.49-38.84,1.58-4.29,5.33-10.96,4.46-15.33Z"/>
  <path d="M628.42,574.57c4.61,5.82,10.93,12.89,19.03,8.83,5.24-2.62,8.46-9.09,11.84-13.86,22.38,.8,23.6,57.81,63.53-16.67,.73-1.46,3.95-6.45,2.81-8-1.78-.01-3.47,3.3-4.63,4.41-11.02,10.57-23.34-4.47-31.03-9.47-10.78-7.02-11.69-4.1-17.68,3.73-1.82,2.38-3.61,4.8-5.3,7.29-11.99,6.38-21.59-11.78-24.97-12.5-6.07,4.84-15.56,21.01-18.37,29.84,.68,2.18,3.32,4.59,4.75,6.39Z"/>
  <path d="M664.05,542.59c7.6-7.69,17.79-25.09,19.56-31.78l-.44-.45c-10.11,4.2-20.21-6.03-26.47-12.73-4.21,.35-8.08,8.96-10.42,12.74-2.77,4.49-8.73,11.73-7.72,16.57,1.99,9.47,21.53,19.64,25.48,15.65Z"/>
  <path d="M411.88,561.28c-14.88,5.03-25.87,18.98-34.86,31.08-4.66,6.27-9.55,13.11-11.32,20.87-2.37,10.4,2.91,19.27,13.12,22.31,11.43,3.39,25.62,1.58,37.27,.44,2.58-.25,6.71-.24,10.58-.63-30.49,19.58-80.9,29.26-109.65,5.47-8.34-6.9-14.61-16.62-19.38-26.24-1.97-3.97-4.22-12.36-8.76-13.89-3.54,2.46-13.62,13.81-15.67,20.94-20.12,69.76,98.08,91.06,160.89,16.21,11.16-13.3,23.63-29.11,22.67-47.5-1.19-22.81-24.16-36.08-44.89-29.07Zm-12.93,50.18c-10-3.27-14.9-12.51-13.08-21.88,20.56-11.54,47.15-2.38,49.48,23.21-12.25,1.26-24.73,2.49-36.4-1.32Z"/>
  <path d="M419.97,542.87c7.6-7.69,17.79-25.09,19.56-31.78l-.44-.45c-10.11,4.2-20.22-6.03-26.47-12.73-4.21,.35-8.08,8.96-10.42,12.74-2.77,4.49-8.73,11.73-7.72,16.57,1.99,9.47,21.53,19.64,25.48,15.65Z"/>
</svg>