<svg xmlns="http://www.w3.org/2000/svg" xmlns:xlink="http://www.w3.org/1999/xlink" viewBox="178.62 371 748.15 306.73">
  <!-- Designed by Behdad Bahari: redl.ink/BEHDADBAHARI -->
  <path d="M395.34,509.09c-9.91-.02-20.54,5.76-27.84,12.1-10.27,8.93-13.23,25.56-16.8,37.76-1.41,4.82-6.12,20.23-4.84,24.14,2.61,7.94,18.9,7.09,27.65,6.67,8.25-.4,16.72-.73,24.9-2.13-13.89,15.56-31.17,28.48-50.66,35.15-10.53,3.6-21.41,4.41-32.46,4.77-55.73,1.8-99.23-20.24-121.23-73.18-6.39,9.56-13.07,38.56-15.44,49.72,14.37,34.57,41.46,60.17,78.13,69.27,24.94,6.18,63.14,7.04,89.17-6.35,22-11.32,41.46-29.93,53.3-51.74,5.65-10.4,9.42-21.78,12.98-33.03,4.7-14.83,11.88-32.65,9.74-48.5-1.68-12.47-13.45-24.63-26.6-24.65Z"/>
  <path d="M619.91,606.66c-15.48-15.62-28.16-60.82-40.82-94.43,76.06-2.51,190.04-61.38,250.35-91.34,5.02-12.29,14.18-36.62,15.07-49.89-66.7,33.14-201.35,102.89-275.03,89.77-5.74,13.17-10.44,27.18-13.53,41.29-3.02,9.96-5.41,20.45-7.11,28.54,13.3,24.23,23.48,53.25,29.72,79.21-29.78,20.05-85.74,19.96-102.25-1.26-34.01-43.73-16.17-117.99-43.93-175.79-6.49,10.5-12.87,37.65-15.42,49.76,25.25,52.58,12.61,119.58,36.29,164.02,3.02,5.67,6.57,11.57,11.51,15.8,23.67,20.24,99.7,18.26,116.99-26.2,1.59-4.09,3.06-8.23,4.43-12.4,4.57,11.42,9.7,24.03,18.38,32.79,24.4,24.62,167.48,32.51,307.07-2.22,6.1-14.66,13.33-35.04,15.14-49.92-140.24,34.9-282.75,26.6-306.86,2.28Z"/>
  <path d="M814.57,530.64c-19.23-3.13-11.73,49.7-54.74,10.88-5.2,10.58-9.01,25.19-11.3,36.75,43.15,38.94,36.03-13.9,54.82-10.84,17.08,2.78,13.68,30.41,47.76,26.96,4.63-11,9.51-24.97,11.18-36.79-33.92,3.43-30.65-24.18-47.72-26.96Z"/>
  <path d="M799.15,509.11c-11.19-4.83-20.53-12.68-30.36-19.72-5.27,11.12-8.96,24.78-11.29,36.76,9.83,7.04,19.19,14.9,30.39,19.74,5.3-11.73,8.99-24.42,11.26-36.78Z"/>
  <path d="M318.33,530.23c-10.36-10.36-20.63-19.36-32.67-27.7-7.13,15.1-12.14,33.47-15.32,49.89,12.02,8.33,22.29,17.32,32.63,27.67,6.99-13.98,12.25-34.39,15.35-49.86Z"/>
</svg>