<svg xmlns="http://www.w3.org/2000/svg" xmlns:xlink="http://www.w3.org/1999/xlink" viewBox="234.87 418.02 610.24 263.94">
  <!-- Designed by Behdad Bahari: redl.ink/BEHDADBAHARI -->
  <path d="M835.62,584.52c-1.51-4.61-1.24-12.13-3.43-16.09-2.19,4.18-3.01,9.29-4.11,13.88-7.56,32.03-4.72,28.15,4.91,57.1-9.93,5.02-24.09,3.87-30.78-4.23-3.82-4.62-1.5-12.9-4.98-16.34-5.97-.8-13.72,5.09-18.71,7.66-25.74,13.26-64.1,27.37-70.75-.96-2.12-9.02,.76-17.96-.33-26.91-8.16-4.5-95.75,64.54-125.34,20.11-3.89-5.84-5.42-12.45-6.94-19.11-9.5-45.13-30.36-46.51-48.37-67.9,40.9-20.5,150.09-11.88,261.11-75.31,3.11-9.69,8.47-28.2,8.42-38.4-121.82,69.6-229.18,52.03-267.18,79.06-7.5,5.34-9.79,13.47-11.97,22.05-2.56,10.09-5.73,21.05-5.87,31.57-.35,25.98,31.11,33.4,45.96,48.61,.05,.05,.09,.09,.14,.14,7.53,7.83,6.56,20.64-1.71,27.7-18.62,15.89-47.65,23.96-64.35,5.55-10.53-11.61-15.3-28.01-20.27-42.52-8.14-23.8-16.73-47.55-22.33-72.12-.99,.62-2.67,6.3-5,16.36-7.54,32.84-2.1,26.37,3.38,48.83,3.16,12.94,6.99,25.72,12.31,37.93,6.7,15.39,10.84,37.15,24.19,50.88,24.86,25.59,71.15-3.45,80.75-30.3,.63-1.78,1.18-3.44,1.76-5.15,1.44,6.45,2.76,12.94,6.18,18.72,26.76,45.22,107.66-15.19,126.26-18.39-.5,9.39-1.88,21.45,1.54,30.38,9.16,23.88,44.44,10.41,67.36-1.06,4.92-2.46,16.13-11.17,21.53-8.73,3.08,5.74,.36,11.91,5.73,17.34,12.94,13.08,36.46,3.96,41.63-12.12,15.08-46.9,7.88-51.75-.75-78.22Z"/>
  <path d="M407.52,525.35c-10.6,1.76-17.07,24.6-18.52,32.65-4.67,25.9-4.52,33.6,29.82,44.87-8.49,5.63-17.54,10.44-26.72,14.83-36.03,17.22-91.82,40.57-129.16,14.33-10.76-7.56-19.56-18.87-20.14-31.99-.35-7.92-.8-16.04-.35-24.15-.44,3.11-1.81,10.88-2.28,12.94-4.4,21.4-9.89,45.54,1.3,65.72,25.59,46.14,95.58,24.87,142.99,2.43,12.11-5.73,29.84-12.8,38.49-23.56,4.76-5.92,5.6-15.98,6.93-23.16,3.84-20.76,5.17-40.08-1.86-60.32-2.89-8.3-9.09-26.49-20.5-24.6Z"/>
  <path d="M773.17,533.37c-2.09,2.52-4.16,5.08-6.1,7.72-13.37,6.43-23.04-13.82-26.69-14.75-6.84,5.02-17.92,22.23-21.37,31.75,.64,2.41,3.42,5.15,4.89,7.18,4.78,6.56,11.36,14.55,20.38,10.49,5.84-2.63,9.64-9.55,13.54-14.6,24.39,1.86,23.18,64.14,70.07-15.36,.86-1.56,4.59-6.87,3.42-8.61-1.94-.09-3.93,3.44-5.25,4.61-12.5,11.05-25.27-5.92-33.44-11.72-11.45-8.14-12.58-5-19.46,3.28Z"/>
  <path d="M764.85,536.07c9.38-7.18,23.01-24.48,25.93-31.45l-.41-.55c-11.56,3.03-20.97-9.55-26.73-17.73-4.6-.25-10.08,8.49-13.18,12.23-3.67,4.44-11.2,11.38-10.83,16.77,.73,10.55,20.35,24.48,25.23,20.75Z"/>
  <path d="M361.43,549.8c8.61-8.03,20.46-26.5,22.69-33.7l-.46-.51c-11.18,4.12-21.72-7.45-28.22-15.02-4.59,.19-9.18,9.39-11.9,13.4-3.21,4.76-10.01,12.37-9.13,17.68,1.74,10.39,22.55,22.32,27.02,18.15Z"/>
</svg>