<svg xmlns="http://www.w3.org/2000/svg" xmlns:xlink="http://www.w3.org/1999/xlink" viewBox="219.83 414.66 640.35 250.66">
  <!-- Designed by Behdad Bahari: redl.ink/BEHDADBAHARI -->
  <path d="M365.31,503.29c-10.36,7.33-13.61,22.68-17.16,34.03-10.92,34.87-13.39,52.05,33.74,44.29,3.82-.63,7.09-3.19,8.53-6.78,0-.02,.02-.04,.02-.06,.46,2.35,.76,4.75,.92,7.17-33.32,32.76-149.58,45.94-155-18.25l-.43-.25c-5.43,9.75-13.72,39.62-15.85,51.67-1.96,11.15,7.79,24.74,15.87,31.15,27.6,21.88,77.29,17.06,108.43,5.78,42.14-15.27,45.24-35.77,56.9-78.28,5.12-18.68,10.16-40.36,2.81-59.21-6.15-15.77-24.65-21.26-38.78-11.26Z"/>
  <path d="M642.76,584.21c-30.53,1.97-32.31,18.61-49.94,25.17-14.13,5.26-36.5,2.51-51.22-5.82,5.31-18.27,12.11-35.87,7.35-54.14,41.13-11.97,80.11-30.78,116-55.27,4.37-10.83,15.78-40.42,15.7-52.19-99.42,67.82-185.74,67.29-194.97,69.41-1.83,2.44-10.95,36.01-11.72,38.58-1.37,4.55-2,5-3.96,13.54,1.71-.12,3.41-.25,5.12-.39,12.2-1.01,24.51,1.6,34.94,8.01,10.71,6.59,19.09,16.59,22.57,28.68-24.47,20.09-70.27,17.74-87.16-9.18-30.48-48.6,9.89-138.24-17.54-175.95-7.18,13.45-13.06,37.31-16.1,52.18,20.45,28.99,2.23,92.97,6.96,142.58,2.7,28.33,18.74,52.85,47.34,55.62,16.18,1.51,38.7-3.11,52.34-14.29,13.59,12.18,41.79,17.11,58.55,10.88,19.01-7.07,27.32-23.97,49.85-25.15,71.33-3.74,174.42,42.11,217.57,17.74,4.83-11.91,15.26-39.36,15.74-52.22-43.47,24.55-147.23-22.34-217.41-17.8Z"/>
  <path d="M702.51,558.97c30.85,1.14,97.17,7.6,132.17-3.33,.26-.08,1.77-.8,9.96-30.41,1.36-4.92,2.23-.83-7.31-16.76-3.66-6.12-7.35-12.59-12.99-17.13-12.16-9.8-30.76-9.76-45.58-10.53-5.74,13.39-9.01,25.15-10.49,34.43,15.02,.79,34.18,.72,46.25,11.13-33.62,3.2-67.89-.59-101.52-1.83-5.82,13.59-9.05,25.35-10.49,34.43Z"/>
  <path d="M383.02,438.76c-10.02-5.73-17.98-14.32-27.76-20.4-4.79,10.28-9.53,24.42-12.9,42.06,9.78,6.08,17.75,14.67,27.76,20.4,4.95-10.72,9.64-24.89,12.9-42.06Z"/>
</svg>