<svg xmlns="http://www.w3.org/2000/svg" xmlns:xlink="http://www.w3.org/1999/xlink" viewBox="171.9 416.16 736.2 247.68">
  <!-- Designed by Behdad Bahari: redl.ink/BEHDADBAHARI -->
  <path d="M399.88,493.98c-1.35,3.44-2.76,6.81-4.13,10.06-3.25,7.73-5.92,13.53-8.64,18.81l-.03,.06c-3.54,7.81-5.02,7.96-5.81,8.04-.94,.09-1.86,.13-2.77,.13-2.69,0-5.26-.4-7.7-1.21-4.15,12.39-8.55,27.26-1.49,38.42,7.03,11.13,21.9,14.08,34.08,15.3l.72,.07c1.64-3.82,3.17-7.63,4.58-11.48,.8,4.41,1.32,8.89,1.56,13.32-18.79,11.59-53.46,22.54-74.99,27.85-41.3,10.18-96.7,20.6-131.33-11.8-11.91-11.14-18.66-26.51-19.16-42.78-.45-15,3.23-18.01,2-20.84-2.02,2.25-13.8,34.78-14.79,55.41-.4,8.57,.62,17.21,3.46,25.33,32.01,91.38,214.26,18.13,227.47,4.33,9.98-10.41,13.32-31.52,16.67-44.76,6.65-26.27,1.91-55.56-6.42-72.47-2.89-5.86-7.85-10.21-13.28-11.79Z"/>
  <path d="M908.07,584.45c-.96-23.47-17.75-42.64-21.31-65.5l-.4-.07c-2.42,5.47-5.57,14.14-6.97,19.95-1.89,7.91-3.67,15.27-2.43,22.69,2.7,16.12,12.57,30.87,17.81,46.49-13.81,7.57-26.45-.98-29.92-12.91-.94-3.21-.51-8.91-3.23-11.15-5.81,.05-12.35,7.79-16.54,11.3-15.2,12.76-49.59,38.8-64.77,13.09-6.63-11.22-6.73-27.85-8.28-40.17l-.3-.17c-16.94,5.45-73.45,76.39-109.85,44.57-12.61-11.02-14.86-26.39-19.99-39.86-4.31-14.05-12.54-26.63-25.42-35.48-12.84-8.8-30.43-15.51-42.07-24.61,28.63-11.74,100.35-2.95,207.49-42.07,.07-.26,.13-.49,.17-.66,1.27-5.78,2.95-11.56,4.56-16.98,2-6.77,3.7-11.89,5.49-16.59l.15-.35c2.81-6.82,3.2-6.89,3.85-7l.54-.1,.43,.43c5.09,5.57,11.71,12.84,19.13,16.93,2-8.11,4.08-17.41,6.51-30.07-95.46,40.92-158.52,43.32-202.44,47.93-51.24,5.37-55.64,16.2-63.29,50.77-1.69,7.64-4.75,17.31-2.91,25.26,6.6,28.46,57.17,23.81,77.12,70.07-14.01,6.49-32.94,8.31-45.38,9.38-101.46,8.75-116.3-31.2-143.29-132.83-3.76,3.49-4.4,12.85-5.67,18.18-6.75,28.45-3.77,25.36-1.75,32.96,10.03,37.83,22.25,88.32,51.82,108.47,42.58,29.03,139.9,13.47,148.83-5.12,1.12-2.34,2.14-4.74,3.08-7.19,7.34,17.4,20.46,31.63,41.89,27.63,24.49-4.56,42.23-21.16,60.7-36.62,5.38-4.5,14.37-11.5,20.65-15.25,.89,8.39,1.41,16.85,3.04,25.14,7.54,38.32,36.48,29.53,66.69,5.35,4.78-3.83,14.34-15.6,20.42-14.18,1.92,2.52,1.61,6.64,2.4,9.63,1.71,6.49,6.02,12.36,12.01,15.54,24.39,12.91,33.97-23.43,37.46-39.02,2.05-9.14,4.29-19.88,3.97-27.81Z"/>
  <path d="M833.81,475.82c-3.31,.56-5.91,6.47-7.82,10.79-.38,.87-.74,1.68-1.08,2.42-3.03,6.43-5.42,11.81-7.51,16.95l-.15,.37-.38,.16c-2.04,.89-4.16,1.04-6.87,.48-15.05-3.13-25.96-18.79-34.02-30.74-.48,.74-1.33,2.15-2.79,4.79-.07,.12-.14,.25-.22,.37h.01c-2.28,4.43-4.5,9.29-7.22,15.74-2.18,5.18-4.46,10.7-6.35,16.24-.1,.31-.27,.74-.48,1.24-1.17,2.89-1.62,4.59-1.34,5.04,5.11,7.58,10.69,15.51,17.74,21.73,9.46,8.35,16.86,11.2,22.6,8.74,3.11-1.33,5.11-3.9,7.17-7.35,3.88-6.5,6.95-13.73,9.91-20.72l1.24-2.92,.91,.36c.16,.06,.29,.12,.42,.18,1.36,.67,2.48,1.99,3.38,3.05l.4,.46c2.53,2.92,4.45,6.3,6.06,9.24,.61,1.13,1.21,2.29,1.82,3.45,2.76,5.29,5.61,10.76,10.21,14.54,5.08,4.18,12.59,6.49,17.93,2.24,5.16-4.11,8.56-11.01,11.57-17.1l.91-1.85c5.75-11.53,10.21-22.03,13.63-32.11,.04-.11,.11-.3,.2-.55,.4-1.11,.71-2.01,.95-2.74-.62,1.14-1.23,2.36-1.54,3.06l-.91-.41h-.01s.9,.45,.9,.45l-.44,.88h-.01c-3.66,6.79-8.73,9.87-14.71,8.91-7.12-1.14-13.05-5.88-18.12-14.47-1.15-1.96-2.21-4.02-3.24-6.02-2.26-4.38-4.59-8.91-7.97-12.49-1.74-1.85-3.35-2.66-4.78-2.41Z"/>
  <path d="M815.71,448.24c-7.5-4-14.12-11.04-19.3-16.71-.4,.78-1.1,2.28-2.3,5.2-.07,.15-.11,.25-.14,.32-1.77,4.65-3.45,9.71-5.44,16.42-1.53,5.2-3.14,10.73-4.38,16.25-.05,.2-.1,.4-.14,.6-.06,.3-.18,.73-.33,1.25-.84,2.99-1.11,4.73-.81,5.17l.66,.72c6.53,7.16,15.47,16.97,25.08,18.84,7.55,1.47,11.77-7.69,15.17-15.06,.69-1.51,1.35-2.93,1.98-4.13,4.2-7.97,6.7-17.14,9.11-26l.71-2.62c.29-1.04,.59-2.08,.89-3.12,.99-3.44,2.02-6.99,2.49-10.48-.18,.38-.36,.77-.55,1.16-3.41,7.34-8.07,17.39-17.85,14.26-1.65-.53-3.27-1.23-4.85-2.07Z"/>
  <path d="M352.56,500.66c1.91,7.09,3.71,13.79,8.85,19.41,3.15,3.44,6.57,5.76,10.34,6.98,2.8,.91,5.8,1.22,9.01,.93,.47-.41,1.69-2.12,3.59-6.31,.05-.11,.09-.17,.09-.19,2.69-5.21,5.32-10.95,8.55-18.61,1.29-3.07,2.61-6.24,3.89-9.47,1.25-3.16,2.47-6.38,3.56-9.61,.27-.79,1.28-4.26,1.76-6.31-7.82,.28-14.62-2.74-20.26-8.99-5.63-6.22-7.53-13.25-9.54-20.69-.02-.07-.04-.13-.06-.2-.68,1.12-1.41,2.34-1.85,3.07-.34,.58-.63,1.06-.89,1.44-2.68,5.21-5.31,10.94-8.53,18.57-2.56,6.09-5.24,12.58-7.45,19.08-.18,.52-.41,1.1-.65,1.72-.73,1.86-1.73,4.4-1.33,5.8,.32,1.14,.62,2.27,.92,3.38Z"/>
</svg>