<svg xmlns="http://www.w3.org/2000/svg" xmlns:xlink="http://www.w3.org/1999/xlink" viewBox="198.29 384 683.42 312">
  <!-- Designed by Behdad Bahari: redl.ink/BEHDADBAHARI -->
  <path d="M608.31,621.16c-15.68-12.07-32.43-50.85-47.75-79.3,67.53-11.39,162.1-77.59,212.27-111.56,3-11.56,8.25-34.37,7.44-46.3-55.5,37.57-167.19,115.97-234.48,113.13-3.54,12.44-6.04,25.5-7.1,38.44-1.49,9.25-2.37,18.88-2.9,26.31,14.77,20.01,27.35,44.66,36.03,67.06-24.15,21.47-74.06,28.11-91.33,11.17-35.59-34.9-28.61-103.28-60.32-151.49-4.52,10.15-6.95,35.12-7.77,46.23,28.84,43.85,25.62,105.13,52.09,141.91,3.38,4.69,7.25,9.53,12.17,12.71,23.55,15.21,91.1,4.3,101.18-37.43,.93-3.84,1.74-7.71,2.46-11.59,5.45,9.63,11.54,20.27,20.33,27.03,24.72,19.02,153.26,8.86,273.57-38.9,3.68-13.81,7.67-32.85,7.5-46.34-120.87,47.98-248.96,57.72-273.38,38.93Z"/>
  <path d="M785.89,521.74c-17.3-2.81-10.55,44.72-49.26,9.79-4.68,9.52-8.11,22.67-10.17,33.07,38.82,35.04,32.42-12.5,49.33-9.75,15.37,2.5,12.31,27.36,42.98,24.26,4.17-9.9,8.55-22.47,10.06-33.1-30.52,3.09-27.58-21.76-42.94-24.26Z"/>
  <path d="M772.02,502.36c-10.07-4.35-18.48-11.41-27.32-17.75-4.74,10-8.07,22.3-10.16,33.08,8.85,6.34,17.27,13.41,27.34,17.76,4.77-10.56,8.09-21.97,10.13-33.09Z"/>
  <path d="M303.97,556.46c-9.32-9.32-18.56-17.42-29.39-24.92-6.41,13.58-10.93,30.11-13.78,44.9,10.82,7.5,20.05,15.59,29.36,24.9,6.29-12.58,11.03-30.95,13.81-44.87Z"/>
  <path d="M374.92,522.67c-29.28-12.46-43.6,36.63-51.51,67.42-2.55,9.92-6.87,28.5,1.13,35.05,3.77,3.09,9.57,4.38,38.88,5.56-55.85,23.48-120.75,36.63-144.49-17.64-3.66-8.37-5.77-17.3-6.82-26.36l-.54,.11c-2.91,5.91-4.86,12.29-6.84,18.57-2.91,9.27-7.55,19.27-6.2,28.86,2.09,14.82,7.32,29.06,17.01,40.71,28.58,34.36,85.4,20,126.89,3.65,13.25-5.22,26.22-11.24,38.69-18.13,14.23-7.86,14.23-4.59,23.94-37.91,6.44-22.08,6.89-22.41-1.76-57.79-4.03-16.48-12.86-35.49-28.39-42.1Zm-40.06,51.99c15.7-16.16,34.07-8.05,45.38,11.22-32.87-1.23-42.37-1.35-45.38-11.22Z"/>
</svg>