<svg xmlns="http://www.w3.org/2000/svg" xmlns:xlink="http://www.w3.org/1999/xlink" viewBox="199.43 394.04 808.35 259.31">
  <!-- Designed by Behdad: t.me/behdadbahariartworks -->
  <path d="M752.16,548.7c-52.12,17.67-131.1,61.78-183.78,52.14,21.04-25.55,36.53-70.35,10.93-83.29-30.91-15.62-81.82,31.02-84.5,70.52-49.53-32.92-2.59-141.61-7.7-150.67,1.33-6.73-4.93-1.36-6.97,.86-10.11,11.74-14.19,26.71-18.84,41.2-5.09,15.86-10.63,34.05-13.88,50.47-7.74,39.15-6.6,100.98,45.37,106.43,10.03,1.05,19.75-.06,28.93-2.85,55.98,31.71,152.86-25.39,221.56-48.75,49.46-16.82,55.51-9.65,65.2-14.15,6.34-2.94,11.16-10.62,14.63-16.58,2.46-4.3,7.82-13.17,4.11-17.54-17.04-5.11-57.23,6.17-75.06,12.21Zm-187.99,32.55c-5.51,4.76-11.98,8.33-18.85,10.77-10.55-6.76-21.21-19.29-22.28-31.46,7.91-4.48,17.65-6.63,26.29-4.42,9.96,2.55,17.23,14.77,14.84,25.11Z"/>
  <path d="M1006.4,394.15c-6.44-1.01-5.32,4.79-51.02,17.2-175.7,47.69-376.63-12.55-451.57,94.76-3.79,5.43-12.22,16.21-11.37,23.46l.77,.6c8.21-3.3,14.34-16.23,21.28-21.85,75.19-60.94,290.2-13.29,445.18-69.29,18.7-6.76,34.48-13.58,44.14-31.56,1.04-2,6.49-12.7,2.58-13.31Z"/>
  <path d="M359.07,576.96c-.49,8.25,7.33,12,14.18,13.5,5.94,1.3,13.28,2.47,20.17,2.07l.37-.02c-49.68,37.28-149.18,46.51-168.8-19.53-.44-1.47-.54-5.28-2.46-5.77-4.56-1.16-10.4,7.34-12.84,10.58-4.61,6.25-11.19,15.47-10.15,23.35,3.21,24.48,31.81,42.59,53.22,48.13,89.34,23.11,181.26-57.36,174.54-107.55-4.38-32.71-66.24,1.91-68.23,35.23Zm49.88-1.97c-10.74,.16-34.21-3.37-35.64-14.1,18.88-13.68,40.97-12.58,35.64,14.1Z"/>
  <path d="M749.83,499.97c4.1-5.9,9.62-13.3,9.94-20.45-4.14,.62-7.65,5.92-10.32,10.12-15.97,16.86-41.01,22.17-54.63,41.37-3.44,4.85-10.59,13.82-9.06,20.11,2.99,12.26,32.49-4.44,73.1-17.99,19.94-6.65,21.96-.99,32.42-18.41,1.61-2.73,5.31-8.01,3.82-11.02-9.8-1.98-48.84,15.17-73.54,22.79,10.53-7.13,20.32-15.08,28.27-26.53Z"/>
  <path d="M370.02,488.25c6.59,3.9,13.14,7.9,20.01,11.3,4.48-.98,7.71-6.5,10.17-10.27,2.36-3.74,6.66-9.62,4.96-13.32-6.95-3.21-13.73-6.76-20.41-10.49-6.5-3.63-7.08-7.2-15.98,6.46-8.86,13.83-5.09,12.57,1.25,16.33Z"/>
</svg>